<svg id="bb8e6179-40e0-4057-9df9-e4d023fd41a7" data-name="Слой 1" xmlns="http://www.w3.org/2000/svg" viewBox="0 0 580.28 258.86"><defs><style>.bfccaa4a-cf3e-4baf-b09b-90fc59214ee3{fill:#fff;}</style></defs><path class="bfccaa4a-cf3e-4baf-b09b-90fc59214ee3" d="M241.5,145.25a10.7,10.7,0,0,1-3,.57c-1.78,0-3.27-.75-3.27-3.28V126.47c0-13.55-8-19.63-20.75-19.63a55.08,55.08,0,0,0-17.2,3V119a40,40,0,0,1,16.17-3.45c7.66,0,11.77,3.92,11.77,9.53v1.58a59.43,59.43,0,0,0-11.68-1.31c-9.35,0-20,3.55-20,15,0,9.25,7.57,13.74,15.7,13.74a26.07,26.07,0,0,0,16.92-5.79c1.59,3.64,4.86,5.23,9,5.23a17.45,17.45,0,0,0,6.36-1.12v-7.2Zm-16.26-4.2a18.28,18.28,0,0,1-13,5.33c-4.48,0-8.41-2.25-8.41-6.64,0-5.6,6-7.38,11.68-7.38a52.37,52.37,0,0,1,9.72,1.12v7.57Zm44.58,13.08a33.86,33.86,0,0,0,14.86-3.08v-9.26a27,27,0,0,1-13.09,3.46c-8,0-15.79-4.58-15.79-14.76,0-10.57,8-14.77,16-14.77a22,22,0,0,1,12.43,3.73V110.3a27.14,27.14,0,0,0-13.83-3.46c-12,0-24.77,7.29-24.77,24,0,16,12.25,23.27,24.21,23.27Zm41.12-28.78c-9.35,0-20,3.55-20,15,0,9.26,7.57,13.74,15.7,13.74a26,26,0,0,0,16.91-5.79c1.59,3.64,4.86,5.23,9,5.23a17.61,17.61,0,0,0,6.35-1.12v-7.2a10.56,10.56,0,0,1-3,.56c-1.77,0-3.27-.75-3.27-3.27V126.47c0-13.55-8-19.62-20.74-19.62a55.12,55.12,0,0,0-17.2,3V119a40,40,0,0,1,16.17-3.45c7.66,0,11.77,3.92,11.77,9.53v1.59a59.43,59.43,0,0,0-11.68-1.31Zm11.68,15.7a18.28,18.28,0,0,1-13,5.33c-4.48,0-8.41-2.25-8.41-6.64,0-5.6,6-7.38,11.68-7.38a52.37,52.37,0,0,1,9.72,1.12v7.57ZM343,130.49c0,12.89,8.69,23.64,22.24,23.64a20.89,20.89,0,0,0,17.2-8.31v7.1h9V87.5h-10v26.35a20.76,20.76,0,0,0-16.17-7c-13.55,0-22.24,10.75-22.24,23.65ZM381.31,125v10.94a15.61,15.61,0,0,1-14.3,9.44c-8,0-13.93-6.08-13.93-14.86S359,115.62,367,115.62a15.68,15.68,0,0,1,14.3,9.35Zm45.23,29.16c6.26,0,12-1.12,16.08-3.08v-8.6a32.87,32.87,0,0,1-14.21,3.17c-8.23,0-16.08-3.36-17.2-11.4H445c2.9-13-3.27-27.38-21.12-27.38-10.37,0-22.71,7.38-22.71,23.64,0,15.8,11.68,23.65,25.42,23.65Zm-2.24-39c9.81,0,12.24,7.67,11.68,11.59H411.12c.38-7.57,6.45-11.59,13.18-11.59Zm91.4,10v27.76h10v-28c0-9.25-5.14-18-17-18-6.54,0-11.77,3.27-15.7,7.2-2.61-4.39-7.29-7.2-14-7.2a20.5,20.5,0,0,0-15,6.83v-5.61h-8.88v44.85h10V122.63c2.34-3,6.45-6.91,11.87-6.91s8.88,3.64,8.88,9.44v27.75h10v-28c0-1-.09-2.06-.19-3.08,2.34-2.81,6.17-6.08,11.12-6.08,5.43,0,8.88,3.65,8.88,9.44Zm64.58-17.1H569.82l-13.37,33.83-15.14-33.83H530.66L552,153.29l-.94,2.25c-2.61,7-6.26,10.46-11.12,10.46a15.46,15.46,0,0,1-4.58-.65v8.5a25.36,25.36,0,0,0,5.89.75c6.82,0,13.18-3.92,18-15.61l21-50.93ZM78.32,1.15,0,9.36V152.92l78.32,46.61,78.33-46.61V9.36L79.15,1.23l-.83-.08Zm68.08,146L78.32,187.6,10.24,147.1V88.26L78,128.6l.12,7.31L31.64,108.23l-.07,7.1,46.69,28.06.12,7.51L31.71,123.13l-.07,7.1,46.69,28.06,47.13-28.2V123l-.06,0V99.81l21-12.54V147.1Zm-.05-67.47-18.63,11-8.6,5.07-41-24.4-.07,7.1L113.1,99.22l-.31.18-.76.45-5,2.93L78.12,85.57l-.07,7.09,22.84,13.59-5.39,3.6-.13.08L78.12,99.76l-.07,7.1,11.32,6.67-11.53,6.92L10.4,80.36l67.54-40.6h0l68.41,39.86Zm.05-7.14L78,32.14h0L10.25,72.45V18.59l68.08-7.14,68.07,7.14v53.9Zm66.87,137.24V192.19h-3.35l-9.37,11.47V192.19h-3.9v17.54H200l9.37-11.47v11.47Zm17.55,0h3.9V192.19h-3.9v7.05h-8.75v-7.05h-3.9v17.54h3.9v-7h8.75Zm7-17.54v3.43h6.06v14.11h3.9V195.62h6v-3.43ZM271.45,209v-3.36a12.82,12.82,0,0,1-5.54,1.24c-3.21,0-6.27-1.32-6.71-4.46h13.16c1.13-5.08-1.28-10.71-8.24-10.71a8.78,8.78,0,0,0-8.86,9.25c0,6.18,4.56,9.25,9.92,9.25a15,15,0,0,0,6.27-1.21Zm-7.15-14c3.83,0,4.78,3,4.56,4.54h-9.7c.15-3,2.52-4.54,5.14-4.54Zm30.86,6c0-5-3.43-9.25-8.68-9.25a8.33,8.33,0,0,0-6.74,3.22v-2.74h-3.47v25.58h3.9v-10.3a8.14,8.14,0,0,0,6.31,2.74c5.25,0,8.68-4.2,8.68-9.25Zm-15,2.12V198.8a6.16,6.16,0,0,1,5.58-3.66c3.17,0,5.43,2.38,5.43,5.81s-2.26,5.82-5.43,5.82a6.14,6.14,0,0,1-5.58-3.69Zm33.7,2.59v-6.28c0-5.3-3.14-7.68-8.1-7.68a21.48,21.48,0,0,0-6.7,1.17v3.59a15.38,15.38,0,0,1,6.3-1.35c3,0,4.6,1.53,4.6,3.72v.63a23.5,23.5,0,0,0-4.56-.52c-3.64,0-7.8,1.39-7.8,5.89,0,3.62,2.95,5.37,6.12,5.37a10.12,10.12,0,0,0,6.6-2.27,3.49,3.49,0,0,0,3.5,2.05,6.84,6.84,0,0,0,2.48-.44v-2.82a4,4,0,0,1-1.16.22,1.13,1.13,0,0,1-1.28-1.28Zm-3.9-.58a7.11,7.11,0,0,1-5.07,2.08c-1.75,0-3.28-.87-3.28-2.59,0-2.19,2.33-2.89,4.56-2.89a20.31,20.31,0,0,1,3.79.44v3Zm19.22-4.2,6.34-8.7h-4.45l-5,6.94h-2.88v-6.94h-3.9v17.54h3.9v-7.28H326l5.76,7.28h4.48Zm7.78-5.27h6v14.11h3.9V195.62h6v-3.43H337Zm22.94-3.43H356v17.54h3.35l9.36-11.47v11.47h3.9V192.19h-3.35l-9.37,11.48Zm17.61,0v17.54H387.8c4.05,0,5.76-2.12,5.76-4.82a4.09,4.09,0,0,0-3-4,4.13,4.13,0,0,0,2.48-4c0-2.74-2-4.67-5.54-4.67h-10Zm9.34,14.58h-5.43v-4.49h5.5c1.35,0,2.7.47,2.7,2.26s-1.17,2.23-2.77,2.23Zm2.26-9.39c0,1.57-1.1,2.12-2.48,2.12h-5.22v-4.35h5.22c1.2,0,2.47.51,2.47,2.23Zm21-5.19v7.05h-8.75v-7.05h-3.9v17.54h3.9v-7h8.75v7h3.9V192.19Zm27.53,0h3.9v17.54h-3.9ZM427.63,198h-4.77v-5.85H419v17.54h8.67c4.41,0,6.93-2.56,6.93-5.85S432,198,427.63,198Zm-.76,8.58h-4v-5.51h4c2.29,0,3.71.95,3.71,2.78s-1.42,2.74-3.71,2.74Zm34.72-1a12.82,12.82,0,0,1-5.54,1.24c-3.21,0-6.27-1.31-6.71-4.46H462.5c1.13-5.07-1.28-10.7-8.24-10.7A8.78,8.78,0,0,0,445.4,201c0,6.18,4.56,9.25,9.92,9.25a15,15,0,0,0,6.27-1.21v-3.36ZM454.44,195c3.83,0,4.78,3,4.56,4.53h-9.7c.15-3,2.52-4.53,5.14-4.53ZM205,233.51c-4.89,0-9.48,3.18-9.48,9.25S200.14,252,205,252s9.48-3.18,9.48-9.24-4.56-9.25-9.48-9.25Zm0,14.91a5.67,5.67,0,1,1,5.5-5.66,5.3,5.3,0,0,1-5.5,5.66Zm17.18,3.11v-7.05H231v7.05h3.9V234H231v7h-8.75v-7h-3.9v17.54Zm84.41,0v-7.05h8.75v7.05h3.9V234h-3.9v7h-8.75v-7h-3.9v17.54Zm-67.67-3a3.13,3.13,0,0,1-1.12-.22v3.07a6.74,6.74,0,0,0,2.4.47c4.66,0,6-6.06,6.49-14.54h5.9v14.21h3.9V234H243c-.33,8.7-1.13,14.55-4.08,14.55Zm37.38-1.06v-6.28c0-5.3-3.13-7.67-8.09-7.67a21.26,21.26,0,0,0-6.71,1.17v3.58a15.46,15.46,0,0,1,6.31-1.35c3,0,4.59,1.53,4.59,3.72v.62a23.31,23.31,0,0,0-4.55-.51c-3.65,0-7.81,1.39-7.81,5.88,0,3.62,2.95,5.37,6.13,5.37a10.16,10.16,0,0,0,6.6-2.26,3.5,3.5,0,0,0,3.5,2,6.88,6.88,0,0,0,2.48-.44v-2.82a4.18,4.18,0,0,1-1.17.22,1.13,1.13,0,0,1-1.28-1.28Zm-3.9-.58a7.08,7.08,0,0,1-5.07,2.08c-1.74,0-3.28-.88-3.28-2.59,0-2.2,2.34-2.89,4.56-2.89a21.1,21.1,0,0,1,3.79.43v3Zm22-6.84v11.48h3.9V234H295l-9.37,11.47V234h-3.9v17.54h3.36Zm30,.82h13.27v3.51H324.48Zm22-6.88h-3.9v17.54h3.9v-7.27h2.8l5.77,7.27h4.48l-7-8.85,6.35-8.69h-4.45l-5,6.94h-2.88ZM370,247.22,364.1,234h-4.16l8.32,17.69-.37.87c-1,2.75-2.44,4.1-4.34,4.1a5.77,5.77,0,0,1-1.78-.26v3.33a10.42,10.42,0,0,0,2.3.29c2.66,0,5.14-1.54,7-6.11l8.2-19.91h-4.09L370,247.22Zm22.43-13.71a8.37,8.37,0,0,0-6.75,3.22V234h-3.46v25.58h3.9v-10.3a8.08,8.08,0,0,0,6.31,2.74c5.25,0,8.67-4.2,8.67-9.25s-3.43-9.24-8.68-9.24Zm-.73,15.06a6.12,6.12,0,0,1-5.58-3.69V240.6a6.16,6.16,0,0,1,5.58-3.66c3.17,0,5.43,2.38,5.43,5.81s-2.26,5.82-5.44,5.82Zm16.09-5.81c0-4.13,3.13-5.77,6.23-5.77a8.48,8.48,0,0,1,4.85,1.46v-3.58a10.52,10.52,0,0,0-5.4-1.36c-4.66,0-9.66,2.85-9.66,9.39,0,6.25,4.78,9.1,9.44,9.1a13.07,13.07,0,0,0,5.8-1.21v-3.62a10.43,10.43,0,0,1-5.1,1.35c-3.14,0-6.16-1.79-6.16-5.77ZM441.71,234h3.9v17.54h-3.9Zm-10.06,5.85h-4.78V234H423v17.54h8.68c4.41,0,6.93-2.56,6.93-5.85s-2.52-5.84-6.93-5.84Zm-.77,8.58h-4V242.9h4c2.3,0,3.72.95,3.72,2.78s-1.42,2.74-3.72,2.74ZM284.73,226.86V230a9,9,0,0,0,5.32,1.5,9.12,9.12,0,0,0,5.33-1.49v-3.18a10,10,0,0,1-10.65,0Z" transform="translate(0 -1.15)"/><path class="bfccaa4a-cf3e-4baf-b09b-90fc59214ee3" d="M239,34.49c4.19,4.65,6.23,10.32,6.23,17.11a24.48,24.48,0,0,1-6.23,17,20.44,20.44,0,0,1-15.9,7c-7.07,0-12.46-2.51-16.28-7.44V93h-10V28.72h10V35c3.82-4.93,9.21-7.44,16.28-7.44A20.45,20.45,0,0,1,239,34.49Zm-32.18,10V58.67a15.75,15.75,0,0,0,13.58,8.09,14.11,14.11,0,0,0,10.51-4.37,15.28,15.28,0,0,0,4.19-10.79,15,15,0,0,0-4.19-10.79,13.82,13.82,0,0,0-10.51-4.46A15.46,15.46,0,0,0,206.81,44.53Z" transform="translate(0 -1.15)"/><path class="bfccaa4a-cf3e-4baf-b09b-90fc59214ee3" d="M301.86,65.92v7.63A9.78,9.78,0,0,1,296,75c-5.11,0-8.37-2.14-9.58-6.52-4.18,4.75-9.76,7.07-16.83,7.07a18.62,18.62,0,0,1-12.28-4.09c-3.25-2.7-4.83-6.51-4.83-11.25s1.76-8.56,5.3-11.16a20.83,20.83,0,0,1,13-4,29.82,29.82,0,0,1,14.6,3.53V46.11c0-6.6-4.46-10-13.39-10a27.11,27.11,0,0,0-14.42,4.09V31.42c4.56-2.61,10.05-3.91,16.65-3.91,12.65,0,21.11,6.33,21.11,17.49V62c0,2.89,1.58,4.56,3.81,4.56A5.22,5.22,0,0,0,301.86,65.92Zm-16.46-10a24.65,24.65,0,0,0-12.18-3.26c-6.7,0-10.7,2.61-10.7,7.07,0,4.84,4,7.25,9.86,7.25a18.47,18.47,0,0,0,13-5.48Z" transform="translate(0 -1.15)"/><path class="bfccaa4a-cf3e-4baf-b09b-90fc59214ee3" d="M311.81,74.38V28.72h10v7.91c3.07-5.31,9.77-9.12,16.84-9.12a3,3,0,0,1,.93.09v10a25.51,25.51,0,0,0-2.79-.19c-7.16,0-12.84,4.19-15,8.93v28Z" transform="translate(0 -1.15)"/><path class="bfccaa4a-cf3e-4baf-b09b-90fc59214ee3" d="M352.54,68.62a23,23,0,0,1-7.07-17.11,22.89,22.89,0,0,1,7.07-17c4.75-4.65,10.7-7,18-7s13.21,2.33,17.95,7a22.86,22.86,0,0,1,7.07,17,23.23,23.23,0,0,1-7.07,17.11c-4.74,4.65-10.69,7-17.95,7S357.29,73.27,352.54,68.62Zm28.74-6.23a14.74,14.74,0,0,0,4.28-10.88,14.66,14.66,0,0,0-4.28-10.79,14.49,14.49,0,0,0-10.7-4.37,14.78,14.78,0,0,0-15.06,15.16,14.78,14.78,0,0,0,15.06,15.25A14.53,14.53,0,0,0,381.28,62.39Z" transform="translate(0 -1.15)"/><path class="bfccaa4a-cf3e-4baf-b09b-90fc59214ee3" d="M420,74.76l-20.46-46h11.07l14.22,33,14.05-33h10.69l-20.46,46Z" transform="translate(0 -1.15)"/><path class="bfccaa4a-cf3e-4baf-b09b-90fc59214ee3" d="M461.54,68.62a23,23,0,0,1-7.07-17.11,22.89,22.89,0,0,1,7.07-17c4.74-4.65,10.69-7,18-7s13.21,2.33,17.95,7a22.89,22.89,0,0,1,7.07,17,23.27,23.27,0,0,1-7.07,17.11c-4.74,4.65-10.7,7-17.95,7S466.28,73.27,461.54,68.62Zm28.74-6.23a14.73,14.73,0,0,0,4.27-10.88,15,15,0,1,0-30,0,14.78,14.78,0,0,0,15.07,15.25A14.55,14.55,0,0,0,490.28,62.39Z" transform="translate(0 -1.15)"/><path class="bfccaa4a-cf3e-4baf-b09b-90fc59214ee3" d="M511.76,74.38V67.69l25.39-30.13H513.43V28.72h38.23V35.6L526.27,65.55h26.87v8.83Z" transform="translate(0 -1.15)"/></svg>